<svg id="Icons" height="512" viewBox="0 0 74 74" width="512" xmlns="http://www.w3.org/2000/svg"><path d="m4 21h-2v-18a1 1 0 0 1 1-1h18v2h-17z"/><path d="m16-2.799h2v39.598h-2z" transform="matrix(.707 -.707 .707 .707 -7.042 17)"/><path d="m72 21h-2v-17h-17v-2h18a1 1 0 0 1 1 1z"/><path d="m37.201 16h39.598v2h-39.598z" transform="matrix(.707 -.707 .707 .707 4.674 45.284)"/><path d="m21 72h-18a1 1 0 0 1 -1-1v-18h2v17h17z"/><path d="m-2.799 56h39.598v2h-39.598z" transform="matrix(.707 -.707 .707 .707 -35.326 28.716)"/><path d="m71 72h-18v-2h17v-17h2v18a1 1 0 0 1 -1 1z"/><path d="m56 37.201h2v39.598h-2z" transform="matrix(.707 -.707 .707 .707 -23.61 57)"/></svg>